<svg xmlns="http://www.w3.org/2000/svg" xmlns:xlink="http://www.w3.org/1999/xlink" width="1400" height="240" viewBox="0 0 1400 240"><defs><clipPath id="a"><rect width="1400" height="240" fill="none"/></clipPath></defs><title>user-header-2</title><g clip-path="url(#a)"><path d="M-17.43,263.74h1.72L-.42,248.46l29-29v44.3h1.22v-44.3l29,29,15.28,15.28h1.72L60.56,248.46l29.63-29.63,29.63,29.63-15.28,15.28h1.72l15.28-15.28,29-29v44.3h1.22v-44.3l29,29,15.28,15.28h1.72l-15.28-15.28,29.63-29.63,29.63,29.63L226.5,263.74h1.72l15.28-15.28,29-29v44.3h1.22v-44.3l29,29L318,263.74h1.72l-15.28-15.28,29.63-29.63,29.63,29.63-15.28,15.28h1.72l15.28-15.28,29-29v44.3h1.22v-44.3l29,29L440,263.74h1.72l-15.28-15.28,29.63-29.63,29.63,29.63-15.28,15.28h1.72l15.28-15.28,29-29v44.3h1.22v-44.3l29,29L562,263.74h1.73l-15.28-15.28L578,218.83l29.63,29.63-15.28,15.28h1.72l15.28-15.28,29-29v44.3h1.22v-44.3l29,29,15.28,15.28h1.72l-15.28-15.28L700,218.83l29.63,29.63-15.28,15.28h1.72l15.28-15.28,29-29v44.3h1.22v-44.3l29,29,15.28,15.28h1.72l-15.28-15.28L822,218.83l29.63,29.63-15.28,15.28H838l15.28-15.28,29-29v44.3h1.22v-44.3l29,29,15.28,15.28h1.72L914.3,248.46l29.63-29.63,29.63,29.63-15.28,15.28H960l15.28-15.28,29-29v44.3h1.22v-44.3l29,29,15.28,15.28h1.72l-15.28-15.28,29.63-29.63,29.63,29.63-15.28,15.28H1082l15.28-15.28,29-29v44.3h1.22v-44.3l29,29,15.28,15.28h1.72l-15.28-15.28,29.63-29.63,29.63,29.63-15.28,15.28h1.72l15.28-15.28,29-29v44.3h1.22v-44.3l29,29,15.28,15.28h1.72l-15.28-15.28,29.63-29.63,29.63,29.63-15.28,15.28h1.72l15.28-15.28,29-29v44.3h1.22v-44.3l29,29,15.28,15.28h1.72l-15.28-15.28,29.63-29.63V156.12l-29.63-29.63,29.63-29.63V34.16L1402.15,4.53l29.63-29.63V-87.8l-29.63-29.63,29.63-29.63v-62.71l-29.63-29.63L1431.78-269v-.86h-.86l-29.63,29.63-29.63-29.63h-1.72l-29.63,29.63-29.63-29.63H1309l-29.63,29.63-29.63-29.63H1248l-29.63,29.63-29.63-29.63H1187l-29.63,29.63-29.63-29.63H1126l-29.63,29.63-29.63-29.63H1065l-29.63,29.63-29.63-29.63H1004l-29.63,29.63-29.63-29.63h-1.72l-29.63,29.63-29.63-29.63h-1.73l-29.63,29.63-29.63-29.63H821.1l-29.63,29.63-29.63-29.63h-1.72l-29.63,29.63-29.63-29.63h-1.72l-29.63,29.63-29.63-29.63h-1.72l-29.63,29.63L578.9-269.88h-1.72l-29.63,29.63-29.63-29.63h-1.72l-29.63,29.63-29.63-29.63h-1.72l-29.63,29.63L396-269.88h-1.72L364.6-240.26,335-269.88h-1.72l-29.63,29.63L274-269.88h-1.72l-29.63,29.63L213-269.88h-1.72l-29.63,29.63L152-269.88h-1.72l-29.63,29.63L91-269.88H89.32L59.7-240.26,30.07-269.88H28.34L-1.29-240.26l-29.63-29.63h-.86v.86l29.63,29.63-29.63,29.63v62.71l29.63,29.63L-31.78-87.8V-25.1L-2.15,4.53-31.78,34.16V96.87L-2.15,126.5l-29.63,29.63v62.71l29.63,29.63Zm46.63-46.63L-.42,187.48l29.63-29.63,29.63,29.63ZM30.07,96,60.56,65.51l29-29V95.75L59.7,125.63Zm59.26,61L59.7,186.61,29.81,156.73V97.48l29,29ZM58.83,4.53,89.32,35,59.7,64.65,29.81,34.77V-24.49ZM30.07-26,60.56-56.45l29-29v59.26L59.7,3.67ZM60.56,4.53,90.19-25.1,119.81,4.53,90.19,34.16Zm60.12-.86L90.8-26.21V-85.47l29,29L150.31-26Zm29.88-28.16V34.77L120.68,64.65,91,35,121.54,4.53ZM90.8,36.5l29,29L150.31,96l-29.63,29.63L90.8,95.75Zm30.74,90,29-29v59.26l-29.88,29.88L91,157Zm0-61,29.63-29.63L180.8,65.51,151.17,95.14Zm59.26-61L211.29,35,181.66,64.65,151.78,34.77V-24.49ZM152-26l30.49-30.49,29-29v59.26L181.66,3.67Zm-.25,123.43,29,29L211.29,157l-29.63,29.63-29.88-29.88ZM152,96l30.49-30.49,29-29V95.75l-29.88,29.88ZM182.52,4.53,212.15-25.1,241.78,4.53,212.15,34.16Zm60.12-.86L212.76-26.21V-85.47l29,29L272.27-26Zm29.88-28.16V34.77L242.64,64.65,213,35,243.5,4.53Zm-59.76,61,29,29L272.27,96l-29.63,29.63L212.76,95.75Zm30.74,90,29-29v59.26l-29.88,29.88L213,157Zm0-61,29.63-29.63,29.63,29.63L273.13,95.14Zm59.26-61L333.25,35,303.62,64.65,273.74,34.77V-24.49ZM274-26l30.49-30.49,29-29v59.26L303.62,3.67Zm-.25,123.43,29,29L333.25,157l-29.63,29.63-29.88-29.88ZM274,96l30.49-30.49,29-29V95.75l-29.88,29.88ZM304.48,4.53,334.11-25.1,363.74,4.53,334.11,34.16Zm60.12-.86L334.72-26.21V-85.47l29,29L394.23-26Zm29.88-28.16V34.77L364.6,64.65,335,35,365.46,4.53Zm-59.76,61,29,29L394.23,96,364.6,125.63,334.72,95.75Zm30.74,90,29-29v59.26L364.6,186.61,335,157Zm0-61,29.63-29.63,29.63,29.63L395.09,95.14Zm59.26-61L455.21,35,425.58,64.65,395.7,34.77V-24.49ZM396-26l30.49-30.49,29-29v59.26L425.58,3.67ZM395.7,97.48l29,29L455.21,157l-29.63,29.63L395.7,156.73ZM396,96l30.49-30.49,29-29V95.75l-29.88,29.88ZM426.45,4.53,456.07-25.1,485.7,4.53,456.07,34.16Zm60.12-.86L456.68-26.21V-85.47l29,29L516.19-26Zm29.88-28.16V34.77L486.57,64.65,456.94,35,487.43,4.53Zm-59.76,61,29,29L516.19,96l-29.63,29.63L456.68,95.75Zm30.74,90,29-29v59.26l-29.88,29.88L456.94,157Zm0-61,29.63-29.63,29.63,29.63L517.06,95.14Zm59.26-61L577.17,35,547.55,64.65,517.67,34.77V-24.49ZM517.92-26l30.49-30.49,29-29v59.26L547.55,3.67Zm-.25,123.43,29,29L577.17,157l-29.63,29.63-29.88-29.88Zm.25-1.47,30.49-30.49,29-29V95.75l-29.88,29.88ZM548.41,4.53,578-25.1,607.67,4.53,578,34.16Zm60.12-.86L578.65-26.21V-85.47l29,29L638.16-26Zm29.88-28.16V34.77L608.53,64.65,578.9,35,609.39,4.53Zm-59.76,61,29,29L638.16,96l-29.63,29.63L578.65,95.75Zm30.74,90,29-29v59.26l-29.88,29.88L578.9,157Zm0-61L639,35.89l29.63,29.63L639,95.14Zm59.26-61L699.14,35,669.51,64.65,639.63,34.77V-24.49ZM639.88-26l30.49-30.49,29-29v59.26L669.51,3.67Zm-.25,123.43,29,29L699.14,157l-29.63,29.63-29.88-29.88Zm.25-1.47,30.49-30.49,29-29V95.75l-29.88,29.88ZM670.37,4.53,700-25.1,729.63,4.53,700,34.16Zm60.12-.86L700.61-26.21V-85.47l29,29L760.12-26Zm29.88-28.16V34.77L730.49,64.65,700.86,35,731.35,4.53Zm-59.76,61,29,29L760.12,96l-29.63,29.63L700.61,95.75Zm30.74,90,29-29v59.26l-29.88,29.88L700.86,157Zm0-61L761,35.89l29.63,29.63L761,95.14Zm59.26-61L821.1,35,791.47,64.65,761.59,34.77V-24.49ZM761.84-26l30.49-30.49,29-29v59.26L791.47,3.67Zm-.25,123.43,29,29L821.1,157l-29.63,29.63-29.88-29.88Zm.25-1.47,30.49-30.49,29-29V95.75l-29.88,29.88ZM792.33,4.53,822-25.1,851.59,4.53,822,34.16Zm60.12-.86L822.57-26.21V-85.47l29,29L882.08-26Zm29.88-28.16V34.77L852.45,64.65,822.83,35,853.32,4.53Zm-59.76,61,29,29L882.08,96l-29.63,29.63L822.57,95.75Zm30.74,90,29-29v59.26l-29.88,29.88L822.83,157Zm0-61,29.63-29.63,29.63,29.63L882.94,95.14Zm59.26-61L943.06,35,913.43,64.65,883.55,34.77V-24.49ZM883.81-26,914.3-56.45l29-29v59.26L913.43,3.67Zm-.25,123.43,29,29L943.06,157l-29.63,29.63-29.88-29.88Zm.25-1.47L914.3,65.51l29-29V95.75l-29.88,29.88ZM914.3,4.53,943.93-25.1,973.55,4.53,943.93,34.16Zm60.12-.86L944.54-26.21V-85.47l29,29L1004-26Zm29.88-28.16V34.77L974.42,64.65,944.79,35,975.28,4.53Zm-59.76,61,29,29L1004,96l-29.63,29.63L944.54,95.75Zm30.74,90,29-29v59.26l-29.88,29.88L944.79,157Zm0-61,29.63-29.63,29.63,29.63-29.63,29.63Zm59.26-61L1065,35,1035.4,64.65l-29.88-29.88V-24.49ZM1005.77-26l30.49-30.49,29-29v59.26L1035.4,3.67Zm-.25,123.43,29,29L1065,157l-29.63,29.63-29.88-29.88Zm.25-1.47,30.49-30.49,29-29V95.75l-29.88,29.88Zm30.49-91.47,29.63-29.63,29.63,29.63-29.63,29.63Zm60.12-.86L1066.5-26.21V-85.47l29,29L1126-26Zm29.88-28.16V34.77l-29.88,29.88L1066.75,35l30.49-30.49Zm-59.76,61,29,29L1126,96l-29.63,29.63L1066.5,95.75Zm30.74,90,29-29v59.26l-29.88,29.88L1066.75,157Zm0-61,29.63-29.63,29.63,29.63-29.63,29.63Zm59.26-61L1187,35l-29.63,29.63-29.88-29.88V-24.49ZM1127.73-26l30.49-30.49,29-29v59.26L1157.36,3.67Zm-.25,123.43,29,29L1187,157l-29.63,29.63-29.88-29.88Zm.25-1.47,30.49-30.49,29-29V95.75l-29.88,29.88Zm30.49-91.47,29.63-29.63,29.63,29.63-29.63,29.63Zm60.12-.86-29.88-29.88V-85.47l29,29L1248-26Zm29.88-28.16V34.77l-29.88,29.88L1188.71,35,1219.2,4.53Zm-59.76,61,29,29L1248,96l-29.63,29.63-29.88-29.88Zm30.74,90,29-29v59.26l-29.88,29.88L1188.71,157Zm0-61,29.63-29.63,29.63,29.63-29.63,29.63Zm59.26-61L1309,35l-29.63,29.63-29.88-29.88V-24.49ZM1249.69-26l30.49-30.49,29-29v59.26L1279.32,3.67Zm-.25,123.43,29,29L1309,157l-29.63,29.63-29.88-29.88Zm.25-1.47,30.49-30.49,29-29V95.75l-29.88,29.88Zm30.49-91.47,29.63-29.63,29.63,29.63-29.63,29.63Zm60.12-.86-29.88-29.88V-85.47l29,29L1369.93-26Zm29.88-28.16V34.77L1340.3,64.65,1310.68,35l30.49-30.49Zm-59.76,61,29,29L1369.93,96l-29.63,29.63-29.88-29.88Zm30.74,90,29-29v59.26l-29.88,29.88L1310.68,157Zm0-61,29.63-29.63,29.63,29.63-29.63,29.63Zm0-122,29.63-29.63,29.63,29.63-29.63,29.63Zm29-30.74L1340.3-57.31l-29.63-29.63,30.49-30.49,29-29Zm-29.88-31.1-29.88-29.88v-59.26l29,29,30.49,30.49Zm-.86.86L1309.81-87.8l-29.63-29.63,29.63-29.63Zm-30.24-30.74-29.88,29.88-29.63-29.63,30.49-30.49,29-29Zm-30.74,30.74L1309-86.94l-29.63,29.63-29.88-29.88v-59.26Zm0,61-29.63,29.63L1219.2-56.45l29.63-29.63Zm-30.24-30.74-29.88,29.88-29.63-29.63,30.49-30.49,29-29Zm-29.88-31.1-29.88-29.88v-59.26l29,29L1248-147.92Zm-.86.86L1187.85-87.8l-29.63-29.63,29.63-29.63Zm-30.24-30.74-29.88,29.88-29.63-29.63,30.49-30.49,29-29Zm-30.74,30.74L1187-86.94l-29.63,29.63-29.88-29.88v-59.26Zm0,61-29.63,29.63-29.63-29.63,29.63-29.63Zm-30.24-30.74-29.88,29.88-29.63-29.63,30.49-30.49,29-29Zm-29.88-31.1-29.88-29.88v-59.26l29,29L1126-147.92Zm-.86.86L1065.89-87.8l-29.63-29.63,29.63-29.63Zm-30.24-30.74-29.88,29.88-29.63-29.63,30.49-30.49,29-29Zm-30.74,30.74L1065-86.94,1035.4-57.31l-29.88-29.88v-59.26Zm0,61-29.63,29.63L975.28-56.45l29.63-29.63ZM1004.3-87.19,974.42-57.31,944.79-86.94l30.49-30.49,29-29Zm-29.88-31.1-29.88-29.88v-59.26l29,29L1004-147.92Zm-.86.86L943.93-87.8,914.3-117.43l29.63-29.63Zm-30.24-30.74-29.88,29.88-29.63-29.63,30.49-30.49,29-29Zm-30.74,30.74,30.49,30.49L913.43-57.31,883.55-87.19v-59.26Zm0,61L882.94-26.82,853.32-56.45l29.63-29.63ZM882.33-87.19,852.45-57.31,822.83-86.94l30.49-30.49,29-29Zm-29.88-31.1-29.88-29.88v-59.26l29,29,30.49,30.49Zm-.86.86L822-87.8l-29.63-29.63L822-147.06Zm-30.24-30.74-29.88,29.88-29.63-29.63,30.49-30.49,29-29Zm-30.74,30.74L821.1-86.94,791.47-57.31,761.59-87.19v-59.26Zm0,61L761-26.82,731.35-56.45,761-86.08ZM760.37-87.19,730.49-57.31,700.86-86.94l30.49-30.49,29-29Zm-29.88-31.1-29.88-29.88v-59.26l29,29,30.49,30.49Zm-.86.86L700-87.8l-29.63-29.63L700-147.06Zm-30.24-30.74-29.88,29.88-29.63-29.63,30.49-30.49,29-29Zm-30.74,30.74,30.49,30.49L669.51-57.31,639.63-87.19v-59.26Zm0,61L639-26.82,609.39-56.45,639-86.08ZM638.41-87.19,608.53-57.31,578.9-86.94l30.49-30.49,29-29Zm-29.88-31.1-29.88-29.88v-59.26l29,29,30.49,30.49Zm-.86.86L578-87.8l-29.63-29.63L578-147.06Zm-30.24-30.74-29.88,29.88-29.63-29.63,30.49-30.49,29-29Zm-30.74,30.74,30.49,30.49L547.55-57.31,517.67-87.19v-59.26Zm0,61L517.06-26.82,487.43-56.45l29.63-29.63ZM516.45-87.19,486.57-57.31,456.94-86.94l30.49-30.49,29-29Zm-29.88-31.1-29.88-29.88v-59.26l29,29,30.49,30.49Zm-.86.86L456.07-87.8l-29.63-29.63,29.63-29.63Zm-30.24-30.74-29.88,29.88L396-147.92l30.49-30.49,29-29Zm-30.74,30.74,30.49,30.49L425.58-57.31,395.7-87.19v-59.26Zm0,61L395.09-26.82,365.46-56.45l29.63-29.63ZM394.48-87.19,364.6-57.31,335-86.94l30.49-30.49,29-29Zm-29.88-31.1-29.88-29.88v-59.26l29,29,30.49,30.49Zm-.86.86L334.11-87.8l-29.63-29.63,29.63-29.63ZM333.5-148.17l-29.88,29.88L274-147.92l30.49-30.49,29-29Zm-30.74,30.74,30.49,30.49L303.62-57.31,273.74-87.19v-59.26Zm0,61L273.13-26.82,243.5-56.45l29.63-29.63ZM272.52-87.19,242.64-57.31,213-86.94l30.49-30.49,29-29Zm-29.88-31.1-29.88-29.88v-59.26l29,29,30.49,30.49Zm-.86.86L212.15-87.8l-29.63-29.63,29.63-29.63Zm-30.24-30.74-29.88,29.88L152-147.92l30.49-30.49,29-29ZM180.8-117.43l30.49,30.49L181.66-57.31,151.78-87.19v-59.26Zm0,61L151.17-26.82,121.54-56.45l29.63-29.63ZM150.56-87.19,120.68-57.31,91-86.94l30.49-30.49,29-29Zm-29.88-31.1L90.8-148.17v-59.26l29,29,30.49,30.49Zm-.86.86L90.19-87.8,60.56-117.43l29.63-29.63ZM89.58-148.17,59.7-118.29,30.07-147.92l30.49-30.49,29-29ZM58.83-117.43,89.32-86.94,59.7-57.31,29.81-87.19v-59.26Zm0,61L29.21-26.82-.42-56.45,29.21-86.08Zm0,122L29.21,95.14-.42,65.51,29.21,35.89Zm30.74,152.2L59.7,247.6,30.07,218l30.49-30.49,29-29Zm-29-91.22L90.19,96.87l29.63,29.63L90.19,156.12Zm60.12,121.1L90.8,217.71V158.46l29,29L150.31,218Zm30.49-30.49-29.63-29.63,29.63-29.63,29.63,29.63Zm60.37.61L181.66,247.6,152,218l30.49-30.49,29-29Zm-29-91.22,29.63-29.63,29.63,29.63-29.63,29.63Zm60.12,121.1-29.88-29.88V158.46l29,29L272.27,218Zm30.49-30.49L243.5,187.48l29.63-29.63,29.63,29.63Zm60.37.61L303.62,247.6,274,218l30.49-30.49,29-29Zm-29-91.22,29.63-29.63,29.63,29.63-29.63,29.63ZM364.6,247.6l-29.88-29.88V158.46l29,29L394.23,218Zm30.49-30.49-29.63-29.63,29.63-29.63,29.63,29.63Zm60.37.61L425.58,247.6,396,218l30.49-30.49,29-29Zm-29-91.22,29.63-29.63L485.7,126.5l-29.63,29.63Zm60.12,121.1-29.88-29.88V158.46l29,29L516.19,218Zm30.49-30.49-29.63-29.63,29.63-29.63,29.63,29.63Zm60.37.61L547.55,247.6,517.92,218l30.49-30.49,29-29Zm-29-91.22L578,96.87l29.63,29.63L578,156.12Zm60.12,121.1-29.88-29.88V158.46l29,29L638.16,218ZM639,217.11l-29.63-29.63L639,157.85l29.63,29.63Zm60.37.61L669.51,247.6,639.88,218l30.49-30.49,29-29Zm-29-91.22L700,96.87l29.63,29.63L700,156.12Zm60.12,121.1-29.88-29.88V158.46l29,29L760.12,218ZM761,217.11l-29.63-29.63L761,157.85l29.63,29.63Zm60.37.61L791.47,247.6,761.84,218l30.49-30.49,29-29Zm-29-91.22L822,96.87l29.63,29.63L822,156.12Zm60.12,121.1-29.88-29.88V158.46l29,29L882.08,218Zm30.49-30.49-29.63-29.63,29.63-29.63,29.63,29.63Zm60.37.61L913.43,247.6,883.81,218l30.49-30.49,29-29Zm-29-91.22,29.63-29.63,29.63,29.63-29.63,29.63Zm60.12,121.1-29.88-29.88V158.46l29,29L1004,218Zm30.49-30.49-29.63-29.63,29.63-29.63,29.63,29.63Zm60.37.61L1035.4,247.6,1005.77,218l30.49-30.49,29-29Zm-29-91.22,29.63-29.63,29.63,29.63-29.63,29.63Zm60.12,121.1-29.88-29.88V158.46l29,29L1126,218Zm30.49-30.49-29.63-29.63,29.63-29.63,29.63,29.63Zm60.37.61-29.88,29.88L1127.73,218l30.49-30.49,29-29Zm-29-91.22,29.63-29.63,29.63,29.63-29.63,29.63Zm60.12,121.1-29.88-29.88V158.46l29,29L1248,218Zm30.49-30.49-29.63-29.63,29.63-29.63,29.63,29.63Zm60.37.61-29.88,29.88L1249.69,218l30.49-30.49,29-29Zm-29-91.22,29.63-29.63,29.63,29.63-29.63,29.63Zm60.12,121.1-29.88-29.88V158.46l29,29L1369.93,218Zm30.49-30.49-29.63-29.63,29.63-29.63,29.63,29.63Zm60.37.61-29.88,29.88L1371.66,218l30.49-30.49,29-29Zm-.25-60.73-29.63,29.63-29.88-29.88V97.48l29,29Zm.25-61.23-29.88,29.88L1371.66,96l30.49-30.49,29-29ZM1430.91,35l-29.63,29.63L1371.4,34.77V-24.49l29,29Zm.25-61.23L1401.29,3.67,1371.66-26l30.49-30.49,29-29Zm-.25-60.73-29.63,29.63L1371.4-87.19v-59.26l29,29Zm.25-61.23-29.88,29.88-29.63-29.63,30.49-30.49,29-29ZM1371.4-268.41l29,29,30.49,30.49-29.63,29.63-29.88-29.88Zm29,90-29.63,29.63-29.63-29.63L1370.79-208Zm-59.26-61,29-29v59.26l-29.88,29.88-29.63-29.63ZM1309.81-269l29.63,29.63-29.63,29.63-29.63-29.63Zm-60.37.61,29,29L1309-208.9l-29.63,29.63-29.88-29.88Zm29,90-29.63,29.63-29.63-29.63L1248.83-208Zm-59.26-61,29-29v59.26l-29.88,29.88-29.63-29.63ZM1187.85-269l29.63,29.63-29.63,29.63-29.63-29.63Zm-60.37.61,29,29L1187-208.9l-29.63,29.63-29.88-29.88Zm29,90-29.63,29.63-29.63-29.63L1126.87-208Zm-59.26-61,29-29v59.26l-29.88,29.88-29.63-29.63ZM1065.89-269l29.63,29.63-29.63,29.63-29.63-29.63Zm-60.37.61,29,29L1065-208.9l-29.63,29.63-29.88-29.88Zm29,90-29.63,29.63-29.63-29.63L1004.91-208Zm-59.26-61,29-29v59.26l-29.88,29.88L944.79-208.9ZM943.93-269l29.63,29.63-29.63,29.63L914.3-239.39Zm-60.37.61,29,29,30.49,30.49-29.63,29.63-29.88-29.88Zm29,90-29.63,29.63-29.63-29.63L882.94-208Zm-59.26-61,29-29v59.26l-29.88,29.88L822.83-208.9ZM822-269l29.63,29.63L822-209.76l-29.63-29.63Zm-60.37.61,29,29L821.1-208.9l-29.63,29.63-29.88-29.88Zm29,90L761-148.78l-29.63-29.63L761-208Zm-59.26-61,29-29v59.26l-29.88,29.88L700.86-208.9ZM700-269l29.63,29.63L700-209.76l-29.63-29.63Zm-60.37.61,29,29,30.49,30.49-29.63,29.63-29.88-29.88Zm29,90L639-148.78l-29.63-29.63L639-208Zm-59.26-61,29-29v59.26l-29.88,29.88L578.9-208.9ZM578-269l29.63,29.63L578-209.76l-29.63-29.63Zm-60.37.61,29,29,30.49,30.49-29.63,29.63-29.88-29.88Zm29,90-29.63,29.63-29.63-29.63L517.06-208Zm-59.26-61,29-29v59.26l-29.88,29.88L456.94-208.9ZM456.07-269l29.63,29.63-29.63,29.63-29.63-29.63Zm-60.37.61,29,29,30.49,30.49-29.63,29.63L395.7-209.15Zm29,90-29.63,29.63-29.63-29.63L395.09-208Zm-59.26-61,29-29v59.26L364.6-179.27,335-208.9ZM334.11-269l29.63,29.63-29.63,29.63-29.63-29.63Zm-60.37.61,29,29,30.49,30.49-29.63,29.63-29.88-29.88Zm29,90-29.63,29.63L243.5-178.41,273.13-208Zm-59.26-61,29-29v59.26l-29.88,29.88L213-208.9ZM212.15-269l29.63,29.63-29.63,29.63-29.63-29.63Zm-60.37.61,29,29,30.49,30.49-29.63,29.63-29.88-29.88Zm29,90-29.63,29.63-29.63-29.63L151.17-208Zm-59.26-61,29-29v59.26l-29.88,29.88L91-208.9ZM90.19-269l29.63,29.63L90.19-209.76,60.56-239.39Zm-60.37.61,29,29L89.32-208.9,59.7-179.27,29.81-209.15Zm29,90L29.21-148.78-.42-178.41,29.21-208Zm-59.26-61,29-29v59.26L-1.29-179.27-30.91-208.9Zm-30.74,91.22v-59.26l29,29,30.49,30.49L-1.29-118.29ZM-.42-117.43l29-29v59.26L-1.29-57.31-30.91-86.94ZM-31.17-26.21V-85.47l29,29L28.34-26-1.29,3.67ZM-.42,4.53l29-29V34.77L-1.29,64.65-30.91,35ZM-31.17,95.75V36.5l29,29L28.34,96-1.29,125.63ZM-.42,126.5l29-29v59.26L-1.29,186.61-30.91,157Zm-30.74,91.22V158.46l29,29L28.34,218-1.29,247.6Z" opacity="0.09"/></g></svg>